<svg xmlns="http://www.w3.org/2000/svg" viewBox="0 0 1080 1920" overflow="hidden" preserveAspectRatio="xMidYMid meet" id="eaf-1035a-0"><!-- Created with Expressive Animator v1.3.1 | https://expressive.app/expressive-animator/ --><defs><clipPath id="eaf-1035a-1"><rect x="0" y="0" width="1080" height="1920"></rect></clipPath></defs><g clip-path="url('#eaf-1035a-1')" style="isolation: isolate;"><g><path fill="none" stroke="#000d03" stroke-width="24" stroke-linecap="square" stroke-linejoin="round" stroke-dasharray="100 3014" stroke-dashoffset="3216" paint-order="stroke" d="m0 0l197.0464 305.7953l-197.0464 325.4762l-238.7577 -325.4762l-187.8871 325.4762l210.7831 338.4259l412.908 0l-197.0464 342.8908q0 0 0 0q0 0 0 279.6834" transform="translate(552.034 328.7285)"><animate keyTimes="0;0.1204;0.4091;1" calcMode="linear" dur="7333ms" fill="freeze" attributeName="stroke-dashoffset" values="3216;3216;100;100"></animate></path><path fill="none" stroke="#000d03" stroke-width="24" stroke-linecap="square" stroke-linejoin="round" stroke-dasharray="100 310" stroke-dashoffset="510" paint-order="stroke" d="m0 0l0 310" transform="translate(540 -2)"><animate keyTimes="0;0.1364;1" calcMode="spline" keySplines="0.8592 0.002 0.5735 0.589;0 0 1 1" dur="7333ms" fill="freeze" attributeName="stroke-dashoffset" values="510;100;100"></animate></path><g><g><path d="M62.3672 50.3438L61.7695 50.168L43.4883 63.4219C42.1875 63 41.168 62.7188 37.3008 62.7188C20.3203 62.7188 6.46875 74.6719 6.46875 89.9297C6.46875 99.2812 11.8125 106.91 20.6016 110.531C10.9336 115.559 6.46875 121.605 6.46875 127.371C6.46875 132.68 10.2305 137.004 15.1172 139.043C7.34766 142.348 2.88281 145.934 2.88281 152.121C2.88281 161.191 13.6758 168.398 30.2344 168.398C52.2773 168.398 65.5312 153.422 65.5312 136.582C65.5312 131.273 64.2305 128.074 62.1914 124.77L26.0508 124.77C21.3047 124.77 18.1406 123.047 18.1406 118.582C18.1406 115.98 19.1602 113.836 23.4844 111.375C25.0664 112.113 27.0703 112.535 31.3945 112.535C48.5156 112.535 62.0508 99.8789 62.0508 84.7266C62.0508 79.418 60.3281 74.6719 57.0234 70.7695C60.3281 63.8789 61.6289 58.8164 62.3672 50.3438ZM31.1133 65.7422C37.8633 65.7422 43.4883 77.2734 43.4883 93.375C43.4883 103.465 41.9062 109.793 36.7031 109.793C29.9531 109.793 24.9258 97.9805 24.9258 81.1406C24.9258 71.7891 25.7695 65.7422 31.1133 65.7422ZM18.5625 141.047L52.6992 141.047C54.1406 142.488 54.7031 146.672 54.7031 149.273C54.7031 159.926 43.6289 165.832 32.2734 165.832C19.7227 165.832 13.8164 159.785 13.8164 150.855C13.8164 146.215 15.3984 143.508 18.5625 141.047Z" fill="#000d03" fill-opacity="0" transform="translate(515.89 192.5085)"><animate keyTimes="0;0.1068;0.1364;0.5704;0.6113;1" calcMode="spline" keySplines="0 0 1 1;0 0 1 1;0 0 1 1;0.5105 0.007 1 0.495;0 0 1 1" dur="7333ms" fill="freeze" attributeName="fill-opacity" values="0;0;1;1;0;0"></animate><animateTransform attributeName="transform" type="translate" from="0 0" to="0 0" calcMode="discrete" dur="7333ms" fill="freeze"></animateTransform><animateMotion keyTimes="0;0.5523;0.6113;1" calcMode="spline" keySplines="0 0 1 1;0.5079 0.003 1 0.5;0 0 1 1" dur="7333ms" fill="freeze" attributeName="transform" keyPoints="0;0;1;1" path="m515.89 192.5085l-420 680" additive="sum"></animateMotion></path></g><g><path d="M28.793 108.492L28.793 64.3008L0.703125 64.3008L11.5312 75.375L11.5312 113.414C11.5312 126.949 18.4219 136.441 30.2344 136.441C38.3203 136.441 44.9297 131.555 49.3945 124.348L49.3945 135.879L76.4648 135L66.6562 124.629L66.6562 64.3008L38.7422 64.3008L49.3945 75.375L49.3945 120.445C46.2305 124.77 42.3281 127.23 38.6016 127.23C30.375 127.23 28.793 120.164 28.793 108.492Z" fill="#000d03" fill-opacity="0" transform="translate(709.4084 488.3037)"><animate keyTimes="0;0.1432;0.1728;0.6409;0.6932;1" calcMode="spline" keySplines="0 0 1 1;0 0 1 1;0 0 1 1;0.5047 0.003 1 0.494;0 0 1 1" dur="7333ms" fill="freeze" attributeName="fill-opacity" values="0;0;1;1;0;0"></animate><animateTransform attributeName="transform" type="translate" from="0 0" to="0 0" calcMode="discrete" dur="7333ms" fill="freeze"></animateTransform><animateMotion keyTimes="0;0.6409;0.6498;0.6592;0.6681;0.6764;0.6838;0.6889;0.6921;0.6932;1" calcMode="linear" dur="7333ms" fill="freeze" attributeName="transform" keyPoints="0.0023;0.0023;0.0191;0.0775;0.1726;0.3048;0.4708;0.6466;0.825;1;1" path="m709.9167 487.4426l-0.5083 0.8612l-223.4084 378.4762" additive="sum"></animateMotion></path></g><g><path d="M57.1641 89.9297L58.3242 89.9297L58.3242 64.4414L4.46484 64.4414L14.2734 75.5156L14.2734 124.066L3.58594 135L44.9297 135L31.5352 124.066L31.5352 91.6523C31.5352 71.1914 35.7188 67.1836 41.168 67.1836C46.5117 67.1836 52.1367 74.9531 57.1641 89.9297Z" fill="#000d03" fill-opacity="0" transform="translate(512.84 848.56)"><animate keyTimes="0;0.1886;0.2182;0.5591;0.5591;1" calcMode="linear" dur="7333ms" fill="freeze" attributeName="fill-opacity" values="0;0;1;1;0;0"></animate></path></g><g><path d="M10.3711 45L20.6016 56.6719L30.6562 45L20.6016 33.4688L10.3711 45ZM4.46484 72.6328L14.2734 83.7422L14.2734 122.625L3.58594 135L42.1875 135L31.5352 122.625L31.5352 63L4.46484 72.6328Z" fill="#000d03" fill-opacity="0" transform="translate(290.3803 508.3038)"><animate keyTimes="0;0.2273;0.2569;0.5819;0.6273;1" calcMode="spline" keySplines="0 0 1 1;0 0 1 1;0 0 1 1;0.5008 0 1 0.508;0 0 1 1" dur="7333ms" fill="freeze" attributeName="fill-opacity" values="0;0;1;1;0;0"></animate><animateTransform attributeName="transform" type="translate" from="0 0" to="0 0" calcMode="discrete" dur="7333ms" fill="freeze"></animateTransform><animateMotion keyTimes="0;0.5819;0.6273;1" calcMode="spline" keySplines="0 0 1 1;0.5064 0.004 1 0.5;0 0 1 1" dur="7333ms" fill="freeze" attributeName="transform" keyPoints="0;0;1;1" path="m290.3803 508.3038l-220 340" additive="sum"></animateMotion></path></g><g><path d="M40.3242 122.906L40.3242 135L68.4141 135L57.7266 125.648L57.5859 125.648L57.5859 75.375L60.7852 64.4414L7.06641 64.4414L7.06641 87.4688L8.05078 87.4688C16.6992 73.0898 23.3438 67.1836 31.1133 67.1836C38.1445 67.1836 40.3242 71.9297 40.3242 88.9102C12.832 99.8789 3.58594 107.508 3.58594 119.883C3.58594 129.656 9.21094 136.441 18.1406 136.441C24.3281 136.441 29.6719 133.277 40.3242 122.906ZM40.3242 91.9336L40.3242 119.461C35.7188 124.207 32.9766 125.051 30.2344 125.051C25.0664 125.051 22.6055 121.887 22.6055 115.137C22.6055 105.926 27.2109 98.4375 40.3242 91.9336Z" fill="#000d03" fill-opacity="0" transform="translate(91.72 849)"><animate keyTimes="0;0.2523;0.2819;0.5636;0.5636;1" calcMode="linear" dur="7333ms" fill="freeze" attributeName="fill-opacity" values="0;0;1;1;0;0"></animate></path></g><g><path d="M43.0664 135L81.6328 135L70.6992 124.066L70.6992 85.7461C70.6992 72.2109 63.8086 62.7188 51.9961 62.7188C46.2305 62.7188 36.8789 67.1836 31.1133 76.1133L31.1133 63L4.04297 72.6328L13.8164 83.7422L13.8164 124.066L2.88281 135L41.4844 135L31.1133 124.066L31.1133 78.9961C35.7188 72.8086 41.168 71.7891 43.6289 71.7891C51.8555 71.7891 53.4375 78.8555 53.4375 90.6328L53.4375 124.066L43.0664 135Z" fill="#000d03" fill-opacity="0" transform="translate(290.3803 1212.2059)"><animate keyTimes="0;0.2887;0.3183;0.6409;0.6516;0.6622;0.6722;0.6817;0.6893;0.6952;0.6988;0.7;1" calcMode="linear" dur="7333ms" fill="freeze" attributeName="fill-opacity" values="0;0;1;1;0.9798;0.9187;0.8212;0.6861;0.5302;0.3542;0.1756;0;0"></animate><animateTransform attributeName="transform" type="translate" from="0 0" to="0 0" calcMode="discrete" dur="7333ms" fill="freeze"></animateTransform><animateMotion keyTimes="0;0.6409;0.7;1" calcMode="spline" keySplines="0 0 1 1;0.5089 0.003 1 0.499;0 0 1 1" dur="7333ms" fill="freeze" attributeName="transform" keyPoints="0;0;1;1" path="m290.3803 1212.2059l206.0916 -332.2059" additive="sum"></animateMotion></path></g><g><path d="M69.1172 96.5391C69.1172 81.1406 60.6094 62.7188 40.7461 62.7188C19.1602 62.7188 4.32422 82.582 4.32422 102.902C4.32422 118.441 12.5156 136.723 32.6953 136.723C54 136.723 69.1172 117 69.1172 96.5391ZM32.9766 66.7266C43.9102 66.7266 51.1172 89.1914 51.1172 109.652C51.1172 122.027 48.375 132.68 40.6055 132.68C30.832 132.68 22.6055 112.254 22.6055 89.7891C22.6055 78.2578 25.0664 66.7266 32.9766 66.7266Z" fill="#000d03" fill-opacity="0" transform="translate(711.8564 1212.2059)"><animate keyTimes="0;0.3296;0.3592;0.7545;0.8023;1" calcMode="spline" keySplines="0 0 1 1;0 0 1 1;0 0 1 1;0.5104 0.002 1 0.503;0 0 1 1" dur="7333ms" fill="freeze" attributeName="fill-opacity" values="0;0;1;1;0;0"></animate><animateTransform attributeName="transform" type="translate" from="0 0" to="0 0" calcMode="discrete" dur="7333ms" fill="freeze"></animateTransform><animateMotion keyTimes="0;0.7545;0.7627;0.7713;0.7794;0.787;0.7937;0.7984;0.8013;0.8023;1" calcMode="linear" dur="7333ms" fill="freeze" attributeName="transform" keyPoints="0.0025;0.0025;0.0209;0.0805;0.1764;0.3088;0.4744;0.6494;0.8265;1;1" path="m711.2583 1213.0073l0.5981 -0.8014l239.6956 -321.2059" additive="sum"></animateMotion></path></g><g><path d="M71.5781 64.4414L46.0898 64.4414L59.168 73.5117L43.207 113.273L28.2305 73.6523L38.7422 64.4414L0.703125 64.4414L8.78906 73.5117L34.5586 138.164L37.4414 138.164L63.4922 73.5117L71.5781 64.4414Z" fill="#000d03" fill-opacity="0" transform="translate(515.89 1527.0967)"><animate keyTimes="0;0.3591;0.3887;0.7432;0.7909;1" calcMode="spline" keySplines="0 0 1 1;0 0 1 1;0 0 1 1;0.5056 0.006 1 0.493;0 0 1 1" dur="7333ms" fill="freeze" attributeName="fill-opacity" values="0;0;1;1;0;0"></animate><animateTransform attributeName="transform" type="translate" from="0 0" to="0 0" calcMode="discrete" dur="7333ms" fill="freeze"></animateTransform><animateMotion keyTimes="0;0.7228;0.7909;1" calcMode="spline" keySplines="0 0 1 1;0.507 0.001 1 0.503;0 0 1 1" dur="7333ms" fill="freeze" attributeName="transform" keyPoints="0;0;1;1" path="m515.89 1527.0966l402.11 -642.0966" additive="sum"></animateMotion></path></g></g><g transform="matrix(1.0008 0 0 1.0008 4.4127 -0.7267)"><rect fill="#000d03" fill-opacity="0" width="1089" height="322" transform="matrix(1 0 0 1.1366 -4 775)"><animate keyTimes="0;0.4091;0.4091;0.4227;0.4227;0.4364;0.4364;0.45;0.45;0.4637;0.4637;0.475;0.475;0.5273;0.5273;1" calcMode="linear" dur="7333ms" fill="freeze" attributeName="fill-opacity" values="0;0;1;1;0;0;1;1;0;0;1;1;0;0;1;1"></animate></rect><g><g transform="translate(-6 3.78)"><path d="M28.2305 64.4414L28.2305 43.9805L1.44141 64.4414L10.9336 70.0664L10.9336 114.539C10.9336 127.793 16.5586 136.723 26.6484 136.723C34.6992 136.723 43.207 130.957 50.0977 119.145L48.375 116.859C44.9297 122.484 41.3438 125.191 36.8789 125.191C30.832 125.191 28.2305 120.164 28.2305 107.648L28.2305 68.7656L47.0742 68.7656L50.2734 64.4414L28.2305 64.4414Z" fill="#e3f2e7" fill-opacity="0" transform="translate(938.568 852.78)"><animate keyTimes="0;0.7091;0.7337;0.7582;0.7814;0.8032;0.8209;0.8346;0.8428;0.8455;1" calcMode="linear" dur="7333ms" fill="freeze" attributeName="fill-opacity" values="0;0;0.0202;0.0817;0.1795;0.3145;0.4703;0.6459;0.8243;1;1"></animate></path></g><g transform="translate(-15.9924 28.78)"><path d="M57.1641 89.9297L58.3242 89.9297L58.3242 64.4414L4.46484 64.4414L14.2734 75.5156L14.2734 124.066L3.58594 135L44.9297 135L31.5352 124.066L31.5352 91.6523C31.5352 71.1914 35.7188 67.1836 41.168 67.1836C46.5117 67.1836 52.1367 74.9531 57.1641 89.9297Z" fill="#e3f2e7" fill-opacity="0" transform="translate(518.568 819.78)"><animate keyTimes="0;0.6023;0.6269;0.6514;0.6746;0.6964;0.7142;0.7278;0.736;0.7387;1" calcMode="linear" dur="7333ms" fill="freeze" attributeName="fill-opacity" values="0;0;0.0202;0.0817;0.1795;0.3145;0.4703;0.6459;0.8243;1;1"></animate></path></g><g transform="translate(-7 28.78)"><path d="M40.3242 122.906L40.3242 135L68.4141 135L57.7266 125.648L57.5859 125.648L57.5859 75.375L60.7852 64.4414L7.06641 64.4414L7.06641 87.4688L8.05078 87.4688C16.6992 73.0898 23.3438 67.1836 31.1133 67.1836C38.1445 67.1836 40.3242 71.9297 40.3242 88.9102C12.832 99.8789 3.58594 107.508 3.58594 119.883C3.58594 129.656 9.21094 136.441 18.1406 136.441C24.3281 136.441 29.6719 133.277 40.3242 122.906ZM40.3242 91.9336L40.3242 119.461C35.7188 124.207 32.9766 125.051 30.2344 125.051C25.0664 125.051 22.6055 121.887 22.6055 115.137C22.6055 105.926 27.2109 98.4375 40.3242 91.9336Z" fill="#e3f2e7" fill-opacity="0" transform="translate(98.36 819.78)"><animate keyTimes="0;0.5342;0.5587;0.5833;0.6064;0.6283;0.646;0.6596;0.6678;0.6705;1" calcMode="linear" dur="7333ms" fill="freeze" attributeName="fill-opacity" values="0;0;0.0202;0.0817;0.1795;0.3145;0.4703;0.6459;0.8243;1;1"></animate></path></g></g><animate keyTimes="0;0.8319;0.8455;0.8455;0.8568;0.8568;0.8704;0.8704;0.8841;0.8841;0.941;0.941;1" calcMode="linear" dur="7333ms" fill="freeze" attributeName="opacity" values="1;1;1;0;0;1;1;0;0;1;1;0;0"></animate></g><g transform="matrix(1.3464 0 0 1.3464 -295.2769 -335.9784)"><g transform="matrix(1.577 0 0 1.577 -562.9777 -552.2284)" opacity="0"><path fill="#000c02" d="m0 72.4005l30.5181 -31.0807l-30.5181 -31.0808l10.0536 -10.239l40.5718 41.3198l-40.5718 41.3195l-10.0536 -10.2388z" transform="matrix(0.7392 0 0 0.7392 904.3692 923.3119)"></path><path fill="#000c02" d="m44.1278 92l56.8722 0l0 -14.4801l-56.8722 0l0 14.4801z" transform="matrix(0.7392 0 0 0.7392 899.384 923.1018)"></path><animate keyTimes="0;0.4091;0.4091;0.4682;0.4682;1" calcMode="linear" dur="7333ms" fill="freeze" attributeName="opacity" values="0;0;1;1;0;0"></animate></g><path fill="#000c02" fill-opacity="0" fill-rule="evenodd" d="m5.4 48.6l43.2 0l0 -21.6l-43.2 0l0 21.6zm48.6 -27l0 5.4l0 21.6l0 5.4l-5.4 0l-43.2 0l-5.4 0l0 -5.4l0 -21.6l0 -5.4l5.4 0l18.9 0l0 -10.8l0 -5.4l13.5 0l0 -5.4l5.4 0l0 5.4l0 5.4l-13.5 0l0 10.8l18.9 0l5.4 0zm-16.2 18.9l5.4 0l0 -5.4l-5.4 0l0 5.4zm-8.1 0c1.4904 0 2.7 -1.2096 2.7 -2.7c0 -1.4904 -1.2096 -2.7 -2.7 -2.7c-1.4904 0 -2.7 1.2096 -2.7 2.7c0 1.4904 1.2096 2.7 2.7 2.7zm-18.9 -5.4l2.7 0l0 -2.7l5.4 0l0 2.7l2.7 0l0 5.4l-2.7 0l0 2.7l-5.4 0l0 -2.7l-2.7 0l0 -5.4z" transform="matrix(2.0414 0 0 2.1299 863.9181 896.5621)"><animate keyTimes="0;0.375;0.375;0.4091;0.4091;1" calcMode="linear" dur="7333ms" fill="freeze" attributeName="fill-opacity" values="0;0;1;1;0;0"></animate></path><path fill="#000c02" fill-opacity="0" d="m7.8815 49.8024l-5.1786 7.161c-1.0237 1.4164 -0.7138 3.3989 0.6931 4.4293c0.5608 0.4099 1.2099 0.6073 1.8512 0.6073c0.9745 0 1.934 -0.4525 2.5503 -1.3041l5.2196 -7.2178c3.427 1.839 7.3355 2.8853 11.484 2.8853c13.5089 0 24.4989 -11.0619 24.4989 -24.659c0 -6.9319 -2.8602 -13.1997 -7.4492 -17.6841l6.4971 -8.9839c1.0237 -1.4164 0.7133 -3.3985 -0.6927 -4.4293c-1.4107 -1.0312 -3.3791 -0.7162 -4.4002 0.6976l-6.4488 8.9175c-3.552 -2.0194 -7.6458 -3.1768 -12.0064 -3.1768c-13.5093 0 -24.4998 11.0619 -24.4998 24.6586c0 7.148 3.0387 13.591 7.8815 18.0984zm34.8179 -18.0984c0 10.101 -8.1634 18.3183 -18.2 18.3183c-2.7616 0 -5.3709 -0.6407 -7.7174 -1.7522l21.003 -29.0444c3.0391 3.2744 4.9144 7.656 4.9144 12.4783zm-18.1996 -18.3175c2.9744 0 5.7769 0.7366 8.2578 2.0155l-21.1383 29.231c-3.2856 -3.3156 -5.3204 -7.8872 -5.3204 -12.9282c0.0013 -10.1009 8.1651 -18.3183 18.2009 -18.3183z" transform="matrix(2.1014 0 0 2.1014 870.4191 887.732)"><animate keyTimes="0;0.3409;0.3409;0.375;0.375;1" calcMode="linear" dur="7333ms" fill="freeze" attributeName="fill-opacity" values="0;0;1;1;0;0"></animate></path><g transform="matrix(2.3453 0 0 2.3453 -1362.1337 -1276.2986)" opacity="0"><path fill="#000c02" d="m9.8058 18.8917c0 1.7747 1.5589 3.211 3.4821 3.211c0.1815 0 0.3598 -0.0122 0.5344 -0.0375c-0.219 0.5015 -0.4747 1.1247 -0.5344 1.4371c-0.2565 1.3176 1.1768 2.424 2.6276 2.424c0 0 0.7021 0.0582 0.8529 -0.0797c0.5429 -0.5007 0 -2.7509 0 -2.7509c0 -0.3797 0.3339 -0.6867 0.7458 -0.6867c0.4103 0 0.7426 0.307 0.7426 0.6867c0 0 -0.5413 2.3298 0 2.8306c0.4425 0.4073 2.058 0.4073 2.4998 0c0.5428 -0.5008 0 -2.8306 0 -2.8306c0 -0.3797 0.3346 -0.6867 0.7442 -0.6867c0.4096 0 0.7442 0.307 0.7442 0.6867c0 0 -0.5429 2.3298 0 2.8306c0.441 0.4073 2.0572 0.4073 2.4982 0c0.5428 -0.5008 0 -2.8306 0 -2.8306c0 -0.3797 0.3338 -0.6867 0.7442 -0.6867c0.4119 0 0.7442 0.307 0.7442 0.6867c0 0 -0.5429 2.2495 0 2.7509c0.1508 0.1386 0.8544 0.0797 0.8544 0.0797c1.4516 0 2.8833 -1.1064 2.6284 -2.424c-0.0597 -0.3124 -0.3154 -0.9356 -0.5359 -1.4371c0.1745 0.0253 0.3544 0.0375 0.5359 0.0375c1.9232 0 3.4821 -1.4363 3.4821 -3.211c0 -1.0336 -0.5283 -1.9516 -1.3514 -2.5388c0.8845 -1.5309 1.3505 -3.2675 1.3514 -5.0355c-0.0023 -5.9558 -5.2369 -10.7861 -11.6965 -10.7861c-6.4596 0 -11.6942 4.8303 -11.6942 10.7861c0 1.8199 0.4893 3.5326 1.3514 5.0355c-0.8223 0.588 -1.3514 1.506 -1.3514 2.5388zm20.0556 -6.7007c2.8183 0.1554 -0.5888 3.8786 -1.9034 4.7675c-1.3138 0.8889 -4.4704 -0.7649 -4.2882 -1.8429c0.2702 -1.5848 4.4552 -3.0204 6.1916 -2.9246zm-9.4203 6.4863c0.4142 -0.7243 0.6233 -1.3812 1.1324 -1.3812c0.5091 0 0.7174 0.6562 1.1331 1.3812c0.3576 0.6232 1.3759 1.0834 0.7618 1.6484c-0.6699 0.6186 -3.1222 0.6186 -3.7921 0c-0.6271 -0.578 0.4058 -1.0244 0.7648 -1.6484zm-7.1532 -6.4863c1.7341 -0.0958 5.9214 1.3398 6.1909 2.9239c0.1829 1.078 -2.9745 2.7317 -4.2883 1.8428c-1.3138 -0.8873 -4.7216 -4.6106 -1.9026 -4.7667z" transform="translate(953.3566 925.2214)"></path><path fill="#000c02" d="m41.1643 37.5301c-1.607 -0.8568 -2.6743 -0.2259 -2.6743 -0.2259c-1.1041 0.6508 -2.9316 0.6898 -4.067 0.085l-8.7588 -4.6634l8.758 -4.6642c1.1347 -0.6026 2.9637 -0.5643 4.067 0.0857c0 0 1.0681 0.6294 2.6743 -0.2258c1.6951 -0.9035 2.2778 -2.9033 1.2978 -4.4697l-0.3246 -0.5161c-0.5352 -0.3736 -1.0421 -1.1844 -1.1263 -1.8015l-0.3238 -0.516c-0.9793 -1.565 -3.1483 -2.1001 -4.8457 -1.1967c-1.607 0.8545 -1.5473 2.0228 -1.5473 2.0228c0.0582 1.2074 -0.8192 2.6881 -1.9531 3.2907l-10.8405 5.7728l-10.842 -5.7728c-1.1331 -0.6026 -2.0121 -2.0833 -1.9524 -3.2907c0 0 0.059 -1.1676 -1.5473 -2.0228c-1.6974 -0.9034 -3.8672 -0.3675 -4.8464 1.1967l-0.3231 0.516c-0.0842 0.6171 -0.5903 1.4271 -1.1278 1.8015l-0.3223 0.5161c-0.98 1.5664 -0.3981 3.5662 1.2985 4.4697c1.6055 0.856 2.6736 0.2258 2.6736 0.2258c1.1025 -0.6507 2.9323 -0.6883 4.0655 -0.0857l8.7596 4.6642l-8.7596 4.6642c-1.1331 0.6048 -2.963 0.565 -4.0655 -0.085c0 0 -1.068 -0.6309 -2.6736 0.2258c-1.6959 0.9027 -2.2785 2.9048 -1.2985 4.469l0.3223 0.516c0.5367 0.3744 1.0435 1.1852 1.1278 1.8023l0.3231 0.516c0.9785 1.5642 3.149 2.1009 4.8464 1.1967c1.607 -0.8552 1.5473 -2.0235 1.5473 -2.0235c-0.0597 -1.2051 0.8192 -2.6874 1.9524 -3.2899l10.842 -5.7736l10.8412 5.7728c1.1332 0.6026 2.0113 2.0848 1.9532 3.2899c0 0 -0.059 1.1676 1.5473 2.0235c1.6974 0.9043 3.8664 0.3668 4.8456 -1.1966l0.3239 -0.5161c0.0834 -0.617 0.5903 -1.4271 1.1262 -1.8022l0.3246 -0.5161c0.9793 -1.5641 0.3966 -3.5662 -1.2977 -4.4689z" transform="translate(953.3566 925.2214)"></path><animate keyTimes="0;0.3068;0.3068;0.3409;0.3409;1" calcMode="linear" dur="7333ms" fill="freeze" attributeName="opacity" values="0;0;1;1;0;0"></animate></g><g transform="matrix(2.0325 0 0 2.0325 -1070.6735 -951.4829)" opacity="0"><path fill="#000c02" d="m54.3125 45.8769l-2.6213 0c1.466 1.5052 2.2855 3.5239 2.2835 5.625l0.3378 0c0.7459 0 1.4613 -0.2963 1.9887 -0.8237c0.5275 -0.5275 0.8238 -1.2429 0.8238 -1.9888c0 -0.7459 -0.2963 -1.4613 -0.8238 -1.9887c-0.5274 -0.5275 -1.2428 -0.8238 -1.9887 -0.8238z" transform="translate(950.7926 907.0461)"></path><path fill="#000c02" d="m45.8751 57.1231c3.1066 0 5.625 -2.5184 5.625 -5.625c0 -3.1066 -2.5184 -5.625 -5.625 -5.625c-3.1066 0 -5.625 2.5184 -5.625 5.625c0 3.1066 2.5184 5.625 5.625 5.625z" transform="translate(950.7926 907.0461)"></path><path fill="#000c02" d="m20.2247 51.5019l17.5501 0c-0.0021 -2.1012 0.8176 -4.12 2.284 -5.625l-22.1176 0c1.466 1.5052 2.2855 3.5239 2.2835 5.625z" transform="translate(950.7926 907.0461)"></path><path fill="#000c02" d="m12.1251 57.1231c3.1066 0 5.625 -2.5184 5.625 -5.625c0 -3.1066 -2.5184 -5.625 -5.625 -5.625c-3.1066 0 -5.625 2.5184 -5.625 5.625c0 3.1066 2.5184 5.625 5.625 5.625z" transform="translate(950.7926 907.0461)"></path><path fill="#000c02" d="m0.875 48.6894c0 0.7459 0.2963 1.4612 0.8238 1.9887c0.5275 0.5274 1.2428 0.8238 1.9887 0.8238l0.3373 0c-0.0021 -2.1013 0.8176 -4.1201 2.2841 -5.625l-2.6213 0c-0.7459 0 -1.4613 0.2963 -1.9887 0.8237c-0.5274 0.5275 -0.8238 1.2428 -0.8238 1.9888z" transform="translate(950.7926 907.0461)"></path><path fill="#000c02" d="m50.6002 23.3732l0 8.0999l3.4712 3.4713c0.158 0.158 0.3593 0.2656 0.5785 0.3092c0.2191 0.0436 0.4463 0.0212 0.6527 -0.0643c0.2064 -0.0855 0.3829 -0.2303 0.507 -0.4161c0.1242 -0.1858 0.1904 -0.4042 0.1904 -0.6277l0 -11.6069c0 -3.7385 -2.4871 -7.1398 -6.1328 -7.9681c-1.434 -0.3293 -2.932 -0.2452 -4.3201 0.2425c1.5296 0.846 2.8049 2.086 3.6935 3.5913c0.8885 1.5052 1.358 3.2209 1.3596 4.9689z" transform="translate(950.7926 907.0461)"></path><path fill="#000c02" d="m9.875 43.7281c0.73 -0.2184 1.4881 -0.3283 2.25 -0.3262c1.3049 0.001 2.5902 0.3175 3.7463 0.9225l2.4855 -10.3514c0.1476 -0.6151 0.498 -1.1625 0.9948 -1.5541c0.4967 -0.3915 1.1108 -0.6045 1.7433 -0.6045l15.8102 0c0.6325 0 1.2466 0.213 1.7433 0.6045c0.4968 0.3916 0.8472 0.939 0.9948 1.5541l2.4855 10.3514c1.1561 -0.605 2.4414 -0.9216 3.7463 -0.9226c0.7619 -0.0021 1.52 0.1079 2.25 0.3263l0 -20.3513c0 -1.9394 -0.7704 -3.7993 -2.1418 -5.1707c-1.3713 -1.3714 -3.2313 -2.1418 -5.1707 -2.1418l-15.75 0c0.0008 -1.9946 -0.3915 -3.9699 -1.1545 -5.8129c-0.763 -1.8429 -1.8817 -3.5175 -3.2921 -4.9279c-1.4105 -1.4104 -3.085 -2.5291 -4.928 -3.2921c-1.843 -0.763 -3.8182 -1.1553 -5.8129 -1.1545l-5.0576 0c-0.37 0 -0.7363 0.0729 -1.0782 0.2144c-0.3418 0.1416 -0.6524 0.3491 -0.914 0.6107c-0.2616 0.2616 -0.4692 0.5722 -0.6107 0.914c-0.1416 0.3418 -0.2145 0.7082 -0.2145 1.0782l0 15.7451l4.5 0l3.375 -3.375l0 27.6637z" transform="translate(950.7926 907.0461)"></path><animate keyTimes="0;0.2727;0.2727;0.3068;0.3068;1" calcMode="linear" dur="7333ms" fill="freeze" attributeName="opacity" values="0;0;1;1;0;0"></animate></g><path fill="#000c02" fill-opacity="0" d="m33.1981 26.0648c2.9786 -1.5228 4.8744 -4.2315 4.4344 -8.7329c-0.5758 -6.1617 -5.6358 -8.226 -12.3372 -8.8017l0 -8.5302l-5.2129 0l0 8.293c-1.3544 0 -2.7414 0.0344 -4.1302 0.067l0 -8.36l-5.213 0l0 8.5302c-1.9164 0.0584 -4.149 0.0292 -10.4586 0l0 5.5515c4.1147 -0.0722 6.2752 -0.3369 6.7702 2.3014l0 23.3561c-0.3145 2.0935 -1.9903 1.7927 -5.72 1.7274l-1.0484 6.1943c9.5047 0 10.4603 0.0344 10.4603 0.0344l0 7.3047l5.2129 0l0 -7.2033c1.4214 0.0344 2.8085 0.0344 4.1302 0.0344l0 7.1706l5.213 0l0 -7.3047c8.7329 -0.4743 14.5715 -2.6743 15.3501 -10.9003c0.6085 -6.6 -2.5042 -9.5459 -7.4473 -10.7301l-0.0035 -0.0018zm-17.1445 -11.6101c2.9442 0 12.1516 -0.9144 12.1516 5.213c0 5.8557 -9.2074 5.1786 -12.1516 5.1786l0 -10.3916zm0 27.0445l0 -11.4417c3.52 0 14.3 -0.9814 14.3 5.72c0 6.4659 -10.78 5.72 -14.3 5.72l0 0.0017z" transform="matrix(2.4336 0 0 2.4336 868.0735 888.5944)"><animate keyTimes="0;0.2386;0.2386;0.2727;0.2727;1" calcMode="linear" dur="7333ms" fill="freeze" attributeName="fill-opacity" values="0;0;1;1;0;0"></animate></path><path fill="none" stroke="#000c02" stroke-opacity="0" stroke-width="4" stroke-miterlimit="10" d="m2 31.8958l0 11.1042l11.1042 0m18.7916 0l11.1042 0l0 -11.1042m-41 -18.7916l0 -11.1042l11.1042 0m18.7916 0l11.1042 0l0 11.1042m-20.5 12.8125l0 -9.3959m-5.0383 -0.8541c-0.6198 0.9174 -0.9467 1.9878 -0.9408 3.0801l0 5.7204c0 0.7512 0.1547 1.495 0.4551 2.189c0.3005 0.6941 0.7409 1.3247 1.2962 1.8559c0.5552 0.5311 1.2143 0.9525 1.9397 1.24c0.7254 0.2874 1.503 0.4354 2.2881 0.4354c0.7852 0 1.5627 -0.148 2.2882 -0.4354c0.7254 -0.2875 1.3845 -0.7089 1.9397 -1.24c0.5552 -0.5312 0.9957 -1.1618 1.2961 -1.8559c0.3005 -0.694 0.4552 -1.4378 0.4552 -2.189m0 -3.6755l0 -2.039c-0.048 -1.5145 -0.6868 -2.951 -1.7812 -4.0052c-1.0943 -1.0543 -2.5583 -1.6434 -4.0818 -1.6426c-0.6202 -0.01 -1.2374 0.0866 -1.8245 0.2854m-9.3958 7.4014l0 3.7567c-0.0044 1.6547 0.2875 3.2896 0.8541 4.7849m-0.8542 -12.8125c0.3312 -2.1034 1.2659 -4.0683 2.693 -5.6607c1.427 -1.5923 3.2863 -2.7451 5.3563 -3.321c2.0701 -0.5759 4.2637 -0.5506 6.3196 0.0727c2.056 0.6234 3.8877 1.8186 5.277 3.4434m2.5624 13.153l0 -5.4287c0.0054 -1.3571 -0.2844 -2.703 -0.8541 -3.9671m-17.9375 17.0833c1.0037 1.0821 2.2002 1.9414 3.5201 2.528c1.3198 0.5866 2.7364 0.8887 4.1674 0.8887c1.431 0 2.8476 -0.3021 4.1674 -0.8887c1.3199 -0.5866 2.5164 -1.4459 3.5201 -2.528" transform="matrix(2.8307 0 0 2.8307 853.2972 887.4539)"><animate keyTimes="0;0.2046;0.2046;0.2386;0.2386;1" calcMode="linear" dur="7333ms" fill="freeze" attributeName="stroke-opacity" values="0;0;1;1;0;0"></animate></path><g transform="matrix(2.777 0 0 2.777 -1742.8222 -1690.4993)" opacity="0"><path fill="#000c02" d="m9.375 0l11.2056 11.2056l-9.375 9.375l-11.2056 -11.2056l0 -9.375l9.375 0z" transform="translate(932.703 926.2534)"></path><path fill="#000c02" d="m20.9597 38.4153l4.6875 4.6875l-4.4194 4.4194l-7.1653 -7.1653l-4.6947 4.6947c0.0048 0.0862 0.0072 0.1734 0.0072 0.2609c0 2.5888 -2.0987 4.6875 -4.6875 4.6875c-2.5888 0 -4.6875 -2.0987 -4.6875 -4.6875c0 -2.5888 2.0987 -4.6875 4.6875 -4.6875c0.0876 0 0.1746 0.0025 0.2609 0.0072l4.6947 -4.6947l-7.1653 -7.1653l4.4194 -4.4194l4.6875 4.6875l29.0403 -29.0403l9.375 0l0 9.375l-29.0403 29.0403z" transform="translate(932.703 926.2534)"></path><path fill="#000c02" d="m45.3125 50c-2.5888 0 -4.6875 -2.0987 -4.6875 -4.6875c0 -0.0875 0.0025 -0.1747 0.0072 -0.2609l-9.1141 -9.1141l11.5847 -11.5847l4.4194 4.4194l-7.1653 7.1653l4.6947 4.6947c0.0862 -0.0047 0.1734 -0.0072 0.2609 -0.0072c2.5888 0 4.6875 2.0987 4.6875 4.6875c0 2.5888 -2.0987 4.6875 -4.6875 4.6875z" transform="translate(932.703 926.2534)"></path><animate keyTimes="0;0.1705;0.1705;0.2046;0.2046;1" calcMode="linear" dur="7333ms" fill="freeze" attributeName="opacity" values="0;0;1;1;0;0"></animate></g><g transform="matrix(2.6826 0 0 2.6826 -1686.1697 -1611.485)" opacity="0"><path fill="#000c02" d="m49.9206 43.0052c-0.1134 -1.3619 -0.5835 -2.67 -1.363 -3.7925c-0.7794 -1.1226 -1.8408 -2.0201 -3.0772 -2.6022l-4.4452 -2.0928l2.4023 -4.9611c0.6552 -1.3529 0.9956 -2.8367 0.9956 -4.34c0.0001 -1.5032 -0.3402 -2.987 -0.9953 -4.34l-6.3821 -13.1815c-4.6764 -9.6586 -18.4348 -9.6586 -23.1113 -0.0002l-6.3827 13.1821c-0.6551 1.3531 -0.9954 2.8369 -0.9953 4.3402c0.0001 1.5033 0.3406 2.9871 0.9959 4.34l2.4026 4.9605l-4.4454 2.0928c-1.2364 0.5822 -2.2977 1.4796 -3.0772 2.6022c-0.7795 1.1225 -1.2495 2.4305 -1.3629 3.7924l-0.4021 4.8291c-0.0288 0.3456 0.0144 0.6933 0.1269 1.0212c0.1125 0.328 0.2918 0.629 0.5265 0.8842c0.2348 0.2551 0.5199 0.4588 0.8374 0.5981c0.3175 0.1393 0.6604 0.2112 1.0071 0.2112l44.6498 0c0.3467 0 0.6896 -0.0719 1.0071 -0.2112c0.3175 -0.1393 0.6026 -0.3429 0.8373 -0.598c0.2348 -0.2551 0.4141 -0.5562 0.5265 -0.8841c0.1125 -0.3279 0.1557 -0.6756 0.1269 -1.0211l-0.4022 -4.8293zm-12.3972 -17.0465c-0.0006 2.9974 -1.121 5.8864 -3.1415 8.1005c-2.0205 2.214 -4.7953 3.5933 -7.7801 3.8673l0 -2.9497c0 -0.2922 -0.1161 -0.5724 -0.3227 -0.7791c-0.2067 -0.2066 -0.4869 -0.3227 -0.7791 -0.3227c-0.2922 0 -0.5724 0.1161 -0.7791 0.3227c-0.2066 0.2067 -0.3227 0.4869 -0.3227 0.7791l0 2.9497c-2.9848 -0.274 -5.7596 -1.6533 -7.7801 -3.8673c-2.0205 -2.2141 -3.1409 -5.1031 -3.1415 -8.1005l0 -6.3101c0 -0.4213 0.0829 -0.8385 0.2442 -1.2278c0.1612 -0.3893 0.3976 -0.743 0.6955 -1.0409c0.2979 -0.2979 0.6516 -0.5342 1.0409 -0.6955c0.3892 -0.1612 0.8064 -0.2442 1.2278 -0.2442l17.63 0c0.4214 0 0.8386 0.083 1.2278 0.2442c0.3893 0.1613 0.743 0.3976 1.0409 0.6955c0.2979 0.2979 0.5343 0.6516 0.6955 1.0409c0.1613 0.3893 0.2442 0.8065 0.2442 1.2278l0 6.3101z" transform="translate(944.7428 928.9895)"></path><path fill="#000c02" d="m32.8278 27.7263c-0.2803 -0.083 -0.5821 -0.0515 -0.8391 0.0878c-0.257 0.1392 -0.4483 0.3748 -0.5318 0.6549c-0.0932 0.3116 -0.2845 0.5848 -0.5454 0.7791c-0.2609 0.1942 -0.5774 0.2992 -0.9027 0.2992c-0.3253 0 -0.6419 -0.105 -0.9027 -0.2992c-0.2609 -0.1943 -0.4522 -0.4675 -0.5454 -0.7791c-0.0413 -0.1388 -0.1095 -0.2681 -0.2007 -0.3805c-0.0912 -0.1124 -0.2037 -0.2058 -0.331 -0.2747c-0.1272 -0.069 -0.2669 -0.1122 -0.4109 -0.1272c-0.144 -0.015 -0.2895 -0.0015 -0.4283 0.0397c-0.2802 0.0833 -0.5159 0.2746 -0.6552 0.5316c-0.069 0.1273 -0.1122 0.267 -0.1272 0.411c-0.015 0.144 -0.0015 0.2895 0.0398 0.4283c0.2289 0.7667 0.6992 1.4392 1.3408 1.9172c0.6417 0.4781 1.4206 0.7364 2.2208 0.7364c0.8002 0 1.579 -0.2583 2.2207 -0.7364c0.6417 -0.478 1.112 -1.1505 1.3409 -1.9172c0.083 -0.2803 0.0514 -0.582 -0.0878 -0.839c-0.1392 -0.257 -0.3747 -0.4483 -0.6548 -0.5319z" transform="translate(944.7428 928.9895)"></path><path fill="#000c02" d="m23.8102 27.7263c-0.1388 -0.0414 -0.2844 -0.055 -0.4284 -0.0401c-0.1441 0.0149 -0.2838 0.0581 -0.4111 0.1271c-0.1273 0.069 -0.2398 0.1624 -0.331 0.2749c-0.0912 0.1125 -0.1593 0.2419 -0.2004 0.3808c-0.0932 0.3116 -0.2845 0.5848 -0.5453 0.7791c-0.2609 0.1942 -0.5775 0.2992 -0.9028 0.2992c-0.3253 0 -0.6418 -0.105 -0.9027 -0.2992c-0.2609 -0.1943 -0.4522 -0.4675 -0.5454 -0.7791c-0.0413 -0.1388 -0.1094 -0.2681 -0.2007 -0.3805c-0.0912 -0.1124 -0.2036 -0.2058 -0.3309 -0.2747c-0.1273 -0.069 -0.267 -0.1122 -0.411 -0.1272c-0.1439 -0.015 -0.2895 -0.0015 -0.4283 0.0397c-0.1387 0.0413 -0.268 0.1095 -0.3805 0.2007c-0.1124 0.0912 -0.2057 0.2037 -0.2747 0.3309c-0.069 0.1273 -0.1122 0.267 -0.1272 0.411c-0.015 0.144 -0.0015 0.2895 0.0398 0.4283c0.2289 0.7667 0.6992 1.4392 1.3409 1.9172c0.6417 0.4781 1.4205 0.7364 2.2207 0.7364c0.8002 0 1.5791 -0.2583 2.2208 -0.7364c0.6416 -0.478 1.1119 -1.1505 1.3408 -1.9172c0.083 -0.2803 0.0515 -0.582 -0.0878 -0.839c-0.1392 -0.257 -0.3747 -0.4483 -0.6548 -0.5319z" transform="translate(944.7428 928.9895)"></path><path fill="#000c02" d="m32.5137 22.3203l-4.0078 0c-0.145 -0.0005 -0.2887 0.0277 -0.4227 0.0829c-0.1341 0.0551 -0.256 0.1362 -0.3587 0.2386c-0.1026 0.1023 -0.1841 0.2239 -0.2397 0.3578c-0.0556 0.1339 -0.0842 0.2775 -0.0842 0.4225c0 0.1449 0.0286 0.2885 0.0842 0.4224c0.0556 0.1339 0.1371 0.2555 0.2397 0.3579c0.1027 0.1023 0.2246 0.1834 0.3587 0.2385c0.134 0.0552 0.2777 0.0834 0.4227 0.0829l4.0078 0c0.145 0.0005 0.2886 -0.0277 0.4227 -0.0829c0.1341 -0.0551 0.2559 -0.1362 0.3586 -0.2385c0.1027 -0.1024 0.1841 -0.224 0.2397 -0.3579c0.0556 -0.1339 0.0842 -0.2775 0.0842 -0.4224c0 -0.145 -0.0286 -0.2886 -0.0842 -0.4225c-0.0556 -0.1339 -0.137 -0.2555 -0.2397 -0.3578c-0.1027 -0.1024 -0.2245 -0.1835 -0.3586 -0.2386c-0.1341 -0.0552 -0.2777 -0.0834 -0.4227 -0.0829z" transform="translate(944.7428 928.9895)"></path><path fill="#000c02" d="m18.4863 24.5238l4.0078 0c0.145 0.0005 0.2887 -0.0277 0.4227 -0.0829c0.1341 -0.0551 0.256 -0.1362 0.3587 -0.2385c0.1026 -0.1024 0.1841 -0.224 0.2397 -0.3579c0.0556 -0.1339 0.0842 -0.2775 0.0842 -0.4224c0 -0.145 -0.0286 -0.2886 -0.0842 -0.4225c-0.0556 -0.1339 -0.1371 -0.2555 -0.2397 -0.3578c-0.1027 -0.1024 -0.2246 -0.1835 -0.3587 -0.2386c-0.134 -0.0552 -0.2777 -0.0834 -0.4227 -0.0829l-4.0078 0c-0.145 -0.0005 -0.2886 0.0277 -0.4227 0.0829c-0.134 0.0551 -0.2559 0.1362 -0.3586 0.2386c-0.1027 0.1023 -0.1841 0.2239 -0.2397 0.3578c-0.0556 0.1339 -0.0842 0.2775 -0.0842 0.4225c0 0.1449 0.0286 0.2885 0.0842 0.4224c0.0556 0.1339 0.137 0.2555 0.2397 0.3579c0.1027 0.1023 0.2246 0.1834 0.3586 0.2385c0.1341 0.0552 0.2777 0.0834 0.4227 0.0829z" transform="translate(944.7428 928.9895)"></path><animate keyTimes="0;0.1364;0.1364;0.1705;0.1705;1" calcMode="linear" dur="7333ms" fill="freeze" attributeName="opacity" values="0;0;1;1;0;0"></animate></g><path fill="#000c02" fill-opacity="0" d="m41.949 0.0714l-34.898 0c-3.8551 0 -6.9796 3.1245 -6.9796 6.9796l0 34.898c0 3.8551 3.1245 6.9796 6.9796 6.9796l34.898 0c3.8551 0 6.9796 -3.1245 6.9796 -6.9796l0 -34.898c0 -3.8552 -3.1245 -6.9796 -6.9796 -6.9796zm-27.9184 38.3878c-1.927 0 -3.4898 -1.5628 -3.4898 -3.4898c0 -1.927 1.5628 -3.4898 3.4898 -3.4898c1.927 0 3.4898 1.5628 3.4898 3.4898c0 1.927 -1.5628 3.4898 -3.4898 3.4898zm0 -10.4694c-1.927 0 -3.4898 -1.5628 -3.4898 -3.4898c0 -1.927 1.5628 -3.4898 3.4898 -3.4898c1.927 0 3.4898 1.5628 3.4898 3.4898c0 1.927 -1.5628 3.4898 -3.4898 3.4898zm0 -10.4694c-1.927 0 -3.4898 -1.5627 -3.4898 -3.4898c0 -1.927 1.5628 -3.4898 3.4898 -3.4898c1.927 0 3.4898 1.5628 3.4898 3.4898c0 1.9271 -1.5628 3.4898 -3.4898 3.4898zm20.9388 20.9388c-1.927 0 -3.4898 -1.5628 -3.4898 -3.4898c0 -1.927 1.5628 -3.4898 3.4898 -3.4898c1.927 0 3.4898 1.5628 3.4898 3.4898c0 1.927 -1.5628 3.4898 -3.4898 3.4898zm0 -10.4694c-1.927 0 -3.4898 -1.5628 -3.4898 -3.4898c0 -1.927 1.5628 -3.4898 3.4898 -3.4898c1.927 0 3.4898 1.5628 3.4898 3.4898c0 1.927 -1.5628 3.4898 -3.4898 3.4898zm0 -10.4694c-1.927 0 -3.4898 -1.5627 -3.4898 -3.4898c0 -1.927 1.5628 -3.4898 3.4898 -3.4898c1.927 0 3.4898 1.5628 3.4898 3.4898c0 1.9271 -1.5628 3.4898 -3.4898 3.4898z" transform="matrix(2.5321 0 0 2.5321 853.1864 894.2529)"><animate keyTimes="0;0.1046;0.1046;0.1364;0.1364;1" calcMode="linear" dur="7333ms" fill="freeze" attributeName="fill-opacity" values="0;0;1;1;0;0"></animate></path><path fill="#000c02" fill-opacity="0" d="m28.4375 17.5205l0 -17.5205l-10.875 0l0 17.5205l-17.2187 0l0 10.875l17.2188 0l0 29.6045l10.875 0l0 -29.6045l17.2187 0l0 -10.875l-17.2187 0z" transform="matrix(2.8333 0 0 2.8333 851.3865 866.8342)"><animate keyTimes="0;0.0682;0.0682;0.1046;0.1046;1" calcMode="linear" dur="7333ms" fill="freeze" attributeName="fill-opacity" values="0;0;1;1;0;0"></animate></path><path fill="#000c02" fill-opacity="0" fill-rule="evenodd" d="m9.4403 23.3107c-0.2245 -0.2881 -0.4355 -0.5595 -0.6231 -0.8107c1.8273 -2.4202 3.8472 -4.6889 6.04 -6.7838c4.6799 -4.4454 10.5692 -8.2912 16.6428 -8.2912c6.0735 0 11.9595 3.8458 16.6428 8.2912c2.1927 2.095 4.2126 4.3637 6.04 6.7838c-1.8284 2.4194 -3.8482 4.6879 -6.04 6.7837c-4.6833 4.4455 -10.5693 8.2913 -16.6428 8.2913c-6.0736 0 -11.9595 -3.8458 -16.6428 -8.2913c-1.9462 -1.8589 -3.7565 -3.855 -5.4169 -5.973zm51.667 -2.6398l-2.8073 1.8291l2.8073 1.8291l-0.0067 0.01l-0.0101 0.0135l-0.0335 0.0536l-0.1239 0.1809c-0.6716 0.9751 -1.3732 1.9292 -2.1038 2.8609c-1.8606 2.3735 -3.8892 4.6103 -6.0702 6.6933c-5.0183 4.767 -12.529 10.1337 -21.2591 10.1337c-8.7301 0 -16.2408 -5.3667 -21.2591 -10.1337c-3.0365 -2.9042 -5.7748 -6.1049 -8.174 -9.5542c-0.0417 -0.0601 -0.083 -0.1204 -0.124 -0.1809l-0.0335 -0.0536l-0.0101 -0.0135l-0.0034 -0.0067c0 -0.0033 -0.0034 -0.0033 2.8039 -1.8324l-2.8073 -1.8291l0.0067 -0.01l0.0101 -0.0135l0.0335 -0.0536c0.1838 -0.2776 0.3737 -0.5513 0.5695 -0.8207c2.2928 -3.2057 4.8814 -6.1891 7.7317 -8.911c5.0116 -4.7771 12.5257 -10.1405 21.2558 -10.1405c8.7301 0 16.2408 5.3667 21.2591 10.1338c3.0365 2.9041 5.7748 6.1048 8.174 9.5542l0.1239 0.1809l0.0335 0.0536l0.0101 0.0134l0.0033 0.0067l0.0034 0.0067zm-2.8073 1.8291l2.8073 -1.8291l1.1892 1.8291l-1.1892 1.8291l-2.8073 -1.8291zm-56.4073 -1.8291l2.8073 1.8291l-2.8073 1.8291l-1.1893 -1.8291l1.1893 -1.8291zm26.2573 1.8291c0 -0.8885 0.3529 -1.7406 0.9812 -2.3688c0.6282 -0.6283 1.4803 -0.9812 2.3688 -0.9812c0.8885 0 1.7406 0.3529 2.3688 0.9812c0.6282 0.6282 0.9812 1.4803 0.9812 2.3688c0 0.8885 -0.353 1.7406 -0.9812 2.3688c-0.6282 0.6283 -1.4803 0.9812 -2.3688 0.9812c-0.8885 0 -1.7406 -0.3529 -2.3688 -0.9812c-0.6283 -0.6282 -0.9812 -1.4803 -0.9812 -2.3688zm3.35 -10.05c-2.6654 0 -5.2217 1.0588 -7.1064 2.9436c-1.8848 1.8847 -2.9436 4.441 -2.9436 7.1064c0 2.6654 1.0588 5.2217 2.9436 7.1064c1.8847 1.8848 4.441 2.9436 7.1064 2.9436c2.6654 0 5.2217 -1.0588 7.1064 -2.9436c1.8848 -1.8847 2.9436 -4.441 2.9436 -7.1064c0 -2.6654 -1.0588 -5.2217 -2.9436 -7.1064c-1.8847 -1.8848 -4.441 -2.9436 -7.1064 -2.9436z" transform="matrix(2.201 0 0 2.201 848.1635 899.1534)"><animate keyTimes="0;0.0341;0.0341;0.0682;0.0682;1" calcMode="linear" dur="7333ms" fill="freeze" attributeName="fill-opacity" values="0;0;1;1;0;0"></animate></path></g></g></g></svg>